<svg width="913" height="1024" viewBox="0 0 913 1024" fill="none" xmlns="http://www.w3.org/2000/svg">
<path d="M270.872 1023.16L1573.59 1817.46" stroke="url(#paint0_linear_511_21)" stroke-width="2.84455"/>
<path d="M298.105 991.552L1560.03 1787.86" stroke="url(#paint1_linear_511_21)" stroke-width="2.84455"/>
<path d="M325.625 960.837L1547.8 1758.49" stroke="url(#paint2_linear_511_21)" stroke-width="2.84455"/>
<path d="M353.298 931.021L1536.81 1729.41" stroke="url(#paint3_linear_511_21)" stroke-width="2.84455"/>
<path d="M380.984 902.099L1526.96 1700.71" stroke="url(#paint4_linear_511_21)" stroke-width="2.84455"/>
<path d="M408.552 874.06L1518.15 1672.46" stroke="url(#paint5_linear_511_21)" stroke-width="2.84455"/>
<path d="M435.87 846.899L1510.29 1644.74" stroke="url(#paint6_linear_511_21)" stroke-width="2.84455"/>
<path d="M462.811 820.602L1503.28 1617.62" stroke="url(#paint7_linear_511_21)" stroke-width="2.84455"/>
<path d="M489.255 795.159L1497.02 1591.16" stroke="url(#paint8_linear_511_21)" stroke-width="2.84455"/>
<path d="M515.087 770.55L1491.41 1565.44" stroke="url(#paint9_linear_511_21)" stroke-width="2.84455"/>
<path d="M540.198 746.769L1486.36 1540.52" stroke="url(#paint10_linear_511_21)" stroke-width="2.84455"/>
<path d="M564.489 723.794L1481.77 1516.47" stroke="url(#paint11_linear_511_21)" stroke-width="2.84455"/>
<path d="M587.868 701.604L1477.55 1493.34" stroke="url(#paint12_linear_511_21)" stroke-width="2.84455"/>
<path d="M610.254 680.061L1473.61 1471.07" stroke="url(#paint13_linear_511_21)" stroke-width="2.84455"/>
<path d="M631.573 659.38L1469.89 1449.95" stroke="url(#paint14_linear_511_21)" stroke-width="2.84455"/>
<path d="M651.765 639.426L1466.29 1429.91" stroke="url(#paint15_linear_511_21)" stroke-width="2.84455"/>
<path d="M670.777 620.168L1462.75 1411" stroke="url(#paint16_linear_511_21)" stroke-width="2.84455"/>
<path d="M688.568 601.59L1459.22 1393.26" stroke="url(#paint17_linear_511_21)" stroke-width="2.84455"/>
<path d="M705.111 583.67L1455.63 1376.73" stroke="url(#paint18_linear_511_21)" stroke-width="2.84455"/>
<path d="M720.386 566.38L1451.93 1361.44" stroke="url(#paint19_linear_511_21)" stroke-width="2.84455"/>
<path d="M734.387 549.697L1448.09 1347.43" stroke="url(#paint20_linear_511_21)" stroke-width="2.84455"/>
<path d="M747.116 533.596L1444.07 1334.71" stroke="url(#paint21_linear_511_21)" stroke-width="2.84455"/>
<path d="M758.59 518.058L1439.85 1323.32" stroke="url(#paint22_linear_511_21)" stroke-width="2.84455"/>
<path d="M768.833 503.057L1435.4 1313.27" stroke="url(#paint23_linear_511_21)" stroke-width="2.84455"/>
<path d="M777.881 488.569L1430.73 1304.58" stroke="url(#paint24_linear_511_21)" stroke-width="2.84455"/>
<path d="M785.779 474.57L1425.81 1297.25" stroke="url(#paint25_linear_511_21)" stroke-width="2.84455"/>
<path d="M792.582 461.039L1420.66 1291.28" stroke="url(#paint26_linear_511_21)" stroke-width="2.84455"/>
<path d="M798.351 447.958L1415.28 1286.69" stroke="url(#paint27_linear_511_21)" stroke-width="2.84455"/>
<path d="M803.158 435.303L1409.7 1283.47" stroke="url(#paint28_linear_511_21)" stroke-width="2.84455"/>
<path d="M807.08 423.054L1403.92 1281.61" stroke="url(#paint29_linear_511_21)" stroke-width="2.84455"/>
<path d="M810.2 411.192L1397.98 1281.09" stroke="url(#paint30_linear_511_21)" stroke-width="2.84455"/>
<path d="M812.609 399.701L1391.9 1281.91" stroke="url(#paint31_linear_511_21)" stroke-width="2.84455"/>
<path d="M814.398 388.562L1385.72 1284.04" stroke="url(#paint32_linear_511_21)" stroke-width="2.84455"/>
<path d="M815.668 377.762L1379.48 1287.46" stroke="url(#paint33_linear_511_21)" stroke-width="2.84455"/>
<path d="M816.515 367.279L1373.2 1292.14" stroke="url(#paint34_linear_511_21)" stroke-width="2.84455"/>
<path d="M817.044 357.108L1366.95 1298.05" stroke="url(#paint35_linear_511_21)" stroke-width="2.84455"/>
<path d="M817.355 347.23L1360.75 1305.15" stroke="url(#paint36_linear_511_21)" stroke-width="2.84455"/>
<path d="M817.552 337.637L1354.65 1313.41" stroke="url(#paint37_linear_511_21)" stroke-width="2.84455"/>
<path d="M817.737 328.316L1348.7 1322.78" stroke="url(#paint38_linear_511_21)" stroke-width="2.84455"/>
<path d="M818.006 319.261L1342.92 1333.22" stroke="url(#paint39_linear_511_21)" stroke-width="2.84455"/>
<path d="M818.46 310.467L1337.37 1344.69" stroke="url(#paint40_linear_511_21)" stroke-width="2.84455"/>
<path d="M819.189 301.92L1332.08 1357.12" stroke="url(#paint41_linear_511_21)" stroke-width="2.84455"/>
<path d="M820.282 293.619L1327.09 1370.46" stroke="url(#paint42_linear_511_21)" stroke-width="2.84455"/>
<path d="M821.825 285.562L1322.42 1384.67" stroke="url(#paint43_linear_511_21)" stroke-width="2.84455"/>
<path d="M823.893 277.741L1318.11 1399.67" stroke="url(#paint44_linear_511_21)" stroke-width="2.84455"/>
<path d="M826.559 270.159L1314.18 1415.41" stroke="url(#paint45_linear_511_21)" stroke-width="2.84455"/>
<path d="M829.888 262.815L1310.66 1431.84" stroke="url(#paint46_linear_511_21)" stroke-width="2.84455"/>
<path d="M833.938 255.706L1307.55 1448.87" stroke="url(#paint47_linear_511_21)" stroke-width="2.84455"/>
<path d="M838.757 248.836L1304.87 1466.44" stroke="url(#paint48_linear_511_21)" stroke-width="2.84455"/>
<path d="M844.388 242.207L1302.62 1484.5" stroke="url(#paint49_linear_511_21)" stroke-width="2.84455"/>
<path d="M850.866 235.809L1300.81 1502.95" stroke="url(#paint50_linear_511_21)" stroke-width="2.84455"/>
<path d="M858.215 229.673L1299.43 1521.76" stroke="url(#paint51_linear_511_21)" stroke-width="2.84455"/>
<path d="M866.453 223.794L1298.46 1540.84" stroke="url(#paint52_linear_511_21)" stroke-width="2.84455"/>
<path d="M875.588 218.17L1297.91 1560.12" stroke="url(#paint53_linear_511_21)" stroke-width="2.84455"/>
<path d="M885.622 212.813L1297.74 1579.54" stroke="url(#paint54_linear_511_21)" stroke-width="2.84455"/>
<path d="M896.548 207.731L1297.94 1599.02" stroke="url(#paint55_linear_511_21)" stroke-width="2.84455"/>
<path d="M908.351 202.928L1298.48 1618.5" stroke="url(#paint56_linear_511_21)" stroke-width="2.84455"/>
<defs>
<linearGradient id="paint0_linear_511_21" x1="864.463" y1="507.335" x2="1939.68" y2="957.303" gradientUnits="userSpaceOnUse">
<stop stop-color="#16E3FF"/>
<stop offset="1" stop-color="#FF5C00"/>
</linearGradient>
<linearGradient id="paint1_linear_511_21" x1="886.528" y1="489.98" x2="1932.05" y2="942.812" gradientUnits="userSpaceOnUse">
<stop stop-color="#16E3FF"/>
<stop offset="1" stop-color="#FF5C00"/>
</linearGradient>
<linearGradient id="paint2_linear_511_21" x1="908.859" y1="473.368" x2="1925.41" y2="928.734" gradientUnits="userSpaceOnUse">
<stop stop-color="#16E3FF"/>
<stop offset="1" stop-color="#FF5C00"/>
</linearGradient>
<linearGradient id="paint3_linear_511_21" x1="931.331" y1="457.517" x2="1919.65" y2="915.126" gradientUnits="userSpaceOnUse">
<stop stop-color="#16E3FF"/>
<stop offset="1" stop-color="#FF5C00"/>
</linearGradient>
<linearGradient id="paint4_linear_511_21" x1="953.819" y1="442.433" x2="1914.7" y2="902.039" gradientUnits="userSpaceOnUse">
<stop stop-color="#16E3FF"/>
<stop offset="1" stop-color="#FF5C00"/>
</linearGradient>
<linearGradient id="paint5_linear_511_21" x1="976.198" y1="428.119" x2="1910.45" y2="889.518" gradientUnits="userSpaceOnUse">
<stop stop-color="#16E3FF"/>
<stop offset="1" stop-color="#FF5C00"/>
</linearGradient>
<linearGradient id="paint6_linear_511_21" x1="998.346" y1="414.584" x2="1906.82" y2="877.616" gradientUnits="userSpaceOnUse">
<stop stop-color="#16E3FF"/>
<stop offset="1" stop-color="#FF5C00"/>
</linearGradient>
<linearGradient id="paint7_linear_511_21" x1="1020.14" y1="401.826" x2="1903.72" y2="866.379" gradientUnits="userSpaceOnUse">
<stop stop-color="#16E3FF"/>
<stop offset="1" stop-color="#FF5C00"/>
</linearGradient>
<linearGradient id="paint8_linear_511_21" x1="1041.48" y1="389.848" x2="1901.05" y2="855.853" gradientUnits="userSpaceOnUse">
<stop stop-color="#16E3FF"/>
<stop offset="1" stop-color="#FF5C00"/>
</linearGradient>
<linearGradient id="paint9_linear_511_21" x1="1062.24" y1="378.644" x2="1898.72" y2="846.079" gradientUnits="userSpaceOnUse">
<stop stop-color="#16E3FF"/>
<stop offset="1" stop-color="#FF5C00"/>
</linearGradient>
<linearGradient id="paint10_linear_511_21" x1="1082.32" y1="368.221" x2="1896.64" y2="837.11" gradientUnits="userSpaceOnUse">
<stop stop-color="#16E3FF"/>
<stop offset="1" stop-color="#FF5C00"/>
</linearGradient>
<linearGradient id="paint11_linear_511_21" x1="1101.62" y1="358.568" x2="1894.73" y2="828.983" gradientUnits="userSpaceOnUse">
<stop stop-color="#16E3FF"/>
<stop offset="1" stop-color="#FF5C00"/>
</linearGradient>
<linearGradient id="paint12_linear_511_21" x1="1120.06" y1="349.678" x2="1892.91" y2="821.734" gradientUnits="userSpaceOnUse">
<stop stop-color="#16E3FF"/>
<stop offset="1" stop-color="#FF5C00"/>
</linearGradient>
<linearGradient id="paint13_linear_511_21" x1="1137.55" y1="341.424" x2="1891.09" y2="815.285" gradientUnits="userSpaceOnUse">
<stop stop-color="#16E3FF"/>
<stop offset="1" stop-color="#FF5C00"/>
</linearGradient>
<linearGradient id="paint14_linear_511_21" x1="1154.03" y1="334.033" x2="1889.22" y2="809.906" gradientUnits="userSpaceOnUse">
<stop stop-color="#16E3FF"/>
<stop offset="1" stop-color="#FF5C00"/>
</linearGradient>
<linearGradient id="paint15_linear_511_21" x1="1169.42" y1="327.379" x2="1887.22" y2="805.517" gradientUnits="userSpaceOnUse">
<stop stop-color="#16E3FF"/>
<stop offset="1" stop-color="#FF5C00"/>
</linearGradient>
<linearGradient id="paint16_linear_511_21" x1="1183.67" y1="321.444" x2="1885.04" y2="802.142" gradientUnits="userSpaceOnUse">
<stop stop-color="#16E3FF"/>
<stop offset="1" stop-color="#FF5C00"/>
</linearGradient>
<linearGradient id="paint17_linear_511_21" x1="1196.75" y1="316.219" x2="1882.62" y2="799.816" gradientUnits="userSpaceOnUse">
<stop stop-color="#16E3FF"/>
<stop offset="1" stop-color="#FF5C00"/>
</linearGradient>
<linearGradient id="paint18_linear_511_21" x1="1208.61" y1="311.692" x2="1879.91" y2="798.567" gradientUnits="userSpaceOnUse">
<stop stop-color="#16E3FF"/>
<stop offset="1" stop-color="#FF5C00"/>
</linearGradient>
<linearGradient id="paint19_linear_511_21" x1="1219.24" y1="307.842" x2="1876.88" y2="798.416" gradientUnits="userSpaceOnUse">
<stop stop-color="#16E3FF"/>
<stop offset="1" stop-color="#FF5C00"/>
</linearGradient>
<linearGradient id="paint20_linear_511_21" x1="1228.62" y1="304.655" x2="1873.5" y2="799.386" gradientUnits="userSpaceOnUse">
<stop stop-color="#16E3FF"/>
<stop offset="1" stop-color="#FF5C00"/>
</linearGradient>
<linearGradient id="paint21_linear_511_21" x1="1236.75" y1="302.111" x2="1869.73" y2="801.493" gradientUnits="userSpaceOnUse">
<stop stop-color="#16E3FF"/>
<stop offset="1" stop-color="#FF5C00"/>
</linearGradient>
<linearGradient id="paint22_linear_511_21" x1="1243.63" y1="300.196" x2="1865.55" y2="804.759" gradientUnits="userSpaceOnUse">
<stop stop-color="#16E3FF"/>
<stop offset="1" stop-color="#FF5C00"/>
</linearGradient>
<linearGradient id="paint23_linear_511_21" x1="1249.29" y1="298.888" x2="1860.97" y2="809.195" gradientUnits="userSpaceOnUse">
<stop stop-color="#16E3FF"/>
<stop offset="1" stop-color="#FF5C00"/>
</linearGradient>
<linearGradient id="paint24_linear_511_21" x1="1253.76" y1="298.168" x2="1855.97" y2="814.81" gradientUnits="userSpaceOnUse">
<stop stop-color="#16E3FF"/>
<stop offset="1" stop-color="#FF5C00"/>
</linearGradient>
<linearGradient id="paint25_linear_511_21" x1="1257.06" y1="298.013" x2="1850.55" y2="821.609" gradientUnits="userSpaceOnUse">
<stop stop-color="#16E3FF"/>
<stop offset="1" stop-color="#FF5C00"/>
</linearGradient>
<linearGradient id="paint26_linear_511_21" x1="1259.24" y1="298.404" x2="1844.71" y2="829.6" gradientUnits="userSpaceOnUse">
<stop stop-color="#16E3FF"/>
<stop offset="1" stop-color="#FF5C00"/>
</linearGradient>
<linearGradient id="paint27_linear_511_21" x1="1260.36" y1="299.322" x2="1838.48" y2="838.785" gradientUnits="userSpaceOnUse">
<stop stop-color="#16E3FF"/>
<stop offset="1" stop-color="#FF5C00"/>
</linearGradient>
<linearGradient id="paint28_linear_511_21" x1="1260.47" y1="300.745" x2="1831.86" y2="849.16" gradientUnits="userSpaceOnUse">
<stop stop-color="#16E3FF"/>
<stop offset="1" stop-color="#FF5C00"/>
</linearGradient>
<linearGradient id="paint29_linear_511_21" x1="1259.65" y1="302.648" x2="1824.88" y2="860.719" gradientUnits="userSpaceOnUse">
<stop stop-color="#16E3FF"/>
<stop offset="1" stop-color="#FF5C00"/>
</linearGradient>
<linearGradient id="paint30_linear_511_21" x1="1257.97" y1="305.009" x2="1817.57" y2="873.452" gradientUnits="userSpaceOnUse">
<stop stop-color="#16E3FF"/>
<stop offset="1" stop-color="#FF5C00"/>
</linearGradient>
<linearGradient id="paint31_linear_511_21" x1="1255.5" y1="307.809" x2="1809.94" y2="887.349" gradientUnits="userSpaceOnUse">
<stop stop-color="#16E3FF"/>
<stop offset="1" stop-color="#FF5C00"/>
</linearGradient>
<linearGradient id="paint32_linear_511_21" x1="1252.33" y1="311.024" x2="1802.03" y2="902.392" gradientUnits="userSpaceOnUse">
<stop stop-color="#16E3FF"/>
<stop offset="1" stop-color="#FF5C00"/>
</linearGradient>
<linearGradient id="paint33_linear_511_21" x1="1248.54" y1="314.634" x2="1793.88" y2="918.565" gradientUnits="userSpaceOnUse">
<stop stop-color="#16E3FF"/>
<stop offset="1" stop-color="#FF5C00"/>
</linearGradient>
<linearGradient id="paint34_linear_511_21" x1="1244.23" y1="318.609" x2="1785.52" y2="935.837" gradientUnits="userSpaceOnUse">
<stop stop-color="#16E3FF"/>
<stop offset="1" stop-color="#FF5C00"/>
</linearGradient>
<linearGradient id="paint35_linear_511_21" x1="1239.48" y1="322.937" x2="1776.98" y2="954.191" gradientUnits="userSpaceOnUse">
<stop stop-color="#16E3FF"/>
<stop offset="1" stop-color="#FF5C00"/>
</linearGradient>
<linearGradient id="paint36_linear_511_21" x1="1234.39" y1="327.587" x2="1768.3" y2="973.588" gradientUnits="userSpaceOnUse">
<stop stop-color="#16E3FF"/>
<stop offset="1" stop-color="#FF5C00"/>
</linearGradient>
<linearGradient id="paint37_linear_511_21" x1="1229.05" y1="332.543" x2="1759.51" y2="993.997" gradientUnits="userSpaceOnUse">
<stop stop-color="#16E3FF"/>
<stop offset="1" stop-color="#FF5C00"/>
</linearGradient>
<linearGradient id="paint38_linear_511_21" x1="1223.55" y1="337.779" x2="1750.64" y2="1015.38" gradientUnits="userSpaceOnUse">
<stop stop-color="#16E3FF"/>
<stop offset="1" stop-color="#FF5C00"/>
</linearGradient>
<linearGradient id="paint39_linear_511_21" x1="1217.97" y1="343.277" x2="1741.74" y2="1037.7" gradientUnits="userSpaceOnUse">
<stop stop-color="#16E3FF"/>
<stop offset="1" stop-color="#FF5C00"/>
</linearGradient>
<linearGradient id="paint40_linear_511_21" x1="1212.42" y1="349.017" x2="1732.81" y2="1060.9" gradientUnits="userSpaceOnUse">
<stop stop-color="#16E3FF"/>
<stop offset="1" stop-color="#FF5C00"/>
</linearGradient>
<linearGradient id="paint41_linear_511_21" x1="1206.96" y1="354.974" x2="1723.91" y2="1084.95" gradientUnits="userSpaceOnUse">
<stop stop-color="#16E3FF"/>
<stop offset="1" stop-color="#FF5C00"/>
</linearGradient>
<linearGradient id="paint42_linear_511_21" x1="1201.68" y1="361.128" x2="1715.03" y2="1109.78" gradientUnits="userSpaceOnUse">
<stop stop-color="#16E3FF"/>
<stop offset="1" stop-color="#FF5C00"/>
</linearGradient>
<linearGradient id="paint43_linear_511_21" x1="1196.66" y1="367.463" x2="1706.21" y2="1135.35" gradientUnits="userSpaceOnUse">
<stop stop-color="#16E3FF"/>
<stop offset="1" stop-color="#FF5C00"/>
</linearGradient>
<linearGradient id="paint44_linear_511_21" x1="1191.97" y1="373.956" x2="1697.47" y2="1161.59" gradientUnits="userSpaceOnUse">
<stop stop-color="#16E3FF"/>
<stop offset="1" stop-color="#FF5C00"/>
</linearGradient>
<linearGradient id="paint45_linear_511_21" x1="1187.66" y1="380.591" x2="1688.8" y2="1188.44" gradientUnits="userSpaceOnUse">
<stop stop-color="#16E3FF"/>
<stop offset="1" stop-color="#FF5C00"/>
</linearGradient>
<linearGradient id="paint46_linear_511_21" x1="1183.81" y1="387.349" x2="1680.23" y2="1215.85" gradientUnits="userSpaceOnUse">
<stop stop-color="#16E3FF"/>
<stop offset="1" stop-color="#FF5C00"/>
</linearGradient>
<linearGradient id="paint47_linear_511_21" x1="1180.45" y1="394.208" x2="1671.75" y2="1243.73" gradientUnits="userSpaceOnUse">
<stop stop-color="#16E3FF"/>
<stop offset="1" stop-color="#FF5C00"/>
</linearGradient>
<linearGradient id="paint48_linear_511_21" x1="1177.64" y1="401.154" x2="1663.36" y2="1272.03" gradientUnits="userSpaceOnUse">
<stop stop-color="#16E3FF"/>
<stop offset="1" stop-color="#FF5C00"/>
</linearGradient>
<linearGradient id="paint49_linear_511_21" x1="1175.42" y1="408.17" x2="1655.06" y2="1300.67" gradientUnits="userSpaceOnUse">
<stop stop-color="#16E3FF"/>
<stop offset="1" stop-color="#FF5C00"/>
</linearGradient>
<linearGradient id="paint50_linear_511_21" x1="1173.81" y1="415.227" x2="1646.83" y2="1329.56" gradientUnits="userSpaceOnUse">
<stop stop-color="#16E3FF"/>
<stop offset="1" stop-color="#FF5C00"/>
</linearGradient>
<linearGradient id="paint51_linear_511_21" x1="1172.83" y1="422.334" x2="1638.66" y2="1358.65" gradientUnits="userSpaceOnUse">
<stop stop-color="#16E3FF"/>
<stop offset="1" stop-color="#FF5C00"/>
</linearGradient>
<linearGradient id="paint52_linear_511_21" x1="1172.51" y1="429.467" x2="1630.52" y2="1387.85" gradientUnits="userSpaceOnUse">
<stop stop-color="#16E3FF"/>
<stop offset="1" stop-color="#FF5C00"/>
</linearGradient>
<linearGradient id="paint53_linear_511_21" x1="1172.85" y1="436.605" x2="1622.41" y2="1417.09" gradientUnits="userSpaceOnUse">
<stop stop-color="#16E3FF"/>
<stop offset="1" stop-color="#FF5C00"/>
</linearGradient>
<linearGradient id="paint54_linear_511_21" x1="1173.84" y1="443.736" x2="1614.28" y2="1446.27" gradientUnits="userSpaceOnUse">
<stop stop-color="#16E3FF"/>
<stop offset="1" stop-color="#FF5C00"/>
</linearGradient>
<linearGradient id="paint55_linear_511_21" x1="1175.49" y1="450.852" x2="1606.12" y2="1475.33" gradientUnits="userSpaceOnUse">
<stop stop-color="#16E3FF"/>
<stop offset="1" stop-color="#FF5C00"/>
</linearGradient>
<linearGradient id="paint56_linear_511_21" x1="1177.78" y1="457.934" x2="1597.88" y2="1504.17" gradientUnits="userSpaceOnUse">
<stop stop-color="#16E3FF"/>
<stop offset="1" stop-color="#FF5C00"/>
</linearGradient>
</defs>
</svg>
