<svg width="119" height="77" viewBox="0 0 119 77" fill="none" xmlns="http://www.w3.org/2000/svg">
<path fill-rule="evenodd" clip-rule="evenodd" d="M4.01244 73.434L64.1665 1.43238L82.3936 13.1351L4.01244 73.434ZM0.862571 76.4585C1.0195 76.6218 1.2483 76.6765 1.45597 76.6142C1.48302 76.606 1.50949 76.596 1.53536 76.584C1.68811 76.6866 1.88251 76.7209 2.0702 76.6654L2.07022 76.6655L97.0158 49.9724L95.1925 44.625L118.89 36.4714L94.0181 19.6146L86.7628 24.0005L83.5157 13.4008C83.5556 13.3017 83.5744 13.194 83.5694 13.0844C83.5581 12.8377 83.4274 12.6109 83.2204 12.4779L63.9659 0.113505L0.836249 75.6742C0.644157 75.9045 0.654907 76.2422 0.862571 76.4585ZM94.2487 44.9498L18.6035 70.9776L95.7294 49.2943L94.2487 44.9498ZM83.6834 17.3648L85.8798 24.5343L81.1814 27.3745L83.6834 17.3648ZM83.4941 16.7466L80.7764 27.6194L73.7929 31.8409L78.1839 17.6349L82.7015 14.1595L83.4941 16.7466ZM66.3569 36.3361L73.3636 32.1005L77.726 17.9872L70.4012 23.6223L66.3569 36.3361ZM69.9397 23.9773L62.4397 29.7472L58.7562 40.9308L65.9222 36.5989L69.9397 23.9773ZM51.1298 45.5411L58.3175 41.196L61.9694 30.109L54.1068 36.1578L51.1298 45.5411ZM53.6426 36.515L50.6953 45.8037L43.4847 50.1627L46.5369 41.9815L53.6426 36.515ZM46.0403 42.3635L43.0273 50.4392L36.5608 54.3482L39.7646 47.1916L46.0403 42.3635ZM39.2096 47.6185L32.6683 52.6509L29.6954 58.4984L36.0587 54.6517L39.2096 47.6185ZM32.0551 53.1226L29.1567 58.8241L22.5951 62.7907L25.6613 58.0414L32.0551 53.1226ZM24.8714 58.6491L19.2779 62.9523L16.8324 66.2743L21.9433 63.1847L24.8714 58.6491ZM18.3235 63.6865L16.0867 66.7251L8.09101 71.5586L18.3235 63.6865ZM4.98663 74.6045L93.9879 20.8025L116.67 36.177L4.98663 74.6045Z" fill="#0F1C14"/>
</svg>
