<svg width="466" height="609" viewBox="0 0 466 609" fill="none" xmlns="http://www.w3.org/2000/svg">
<path d="M151.534 7.06466L152.339 4.58873C156.583 5.97494 160.653 7.76216 164.451 9.89329L163.173 12.1632C159.525 10.1196 155.606 8.40074 151.534 7.06466ZM182.078 28.8933C179.563 25.4107 176.692 22.2432 173.566 19.4792L175.289 17.5301C178.562 20.4205 181.559 23.7324 184.185 27.3701L182.078 28.8933ZM126.326 3.24156L126.342 0.636329C130.897 0.665824 135.313 0.985614 139.487 1.59706L139.107 4.17084C135.06 3.58325 130.753 3.26657 126.326 3.24156ZM192.729 51.9689C191.619 47.7496 190.18 43.6994 188.462 39.9188L190.824 38.8363C192.614 42.75 194.103 46.9396 195.25 51.3014L192.729 51.9689ZM100.699 5.75123L100.227 3.19182C104.715 2.35722 109.084 1.72492 113.21 1.30236L113.475 3.89091C109.415 4.3023 105.12 4.92781 100.699 5.75123ZM195.494 77.3919C195.638 73.0912 195.48 68.7748 195.027 64.5673L197.619 64.2933C198.076 68.6139 198.242 73.0554 198.098 77.4766L195.494 77.3919ZM75.5667 11.9692L74.8211 9.48142C79.1966 8.16878 83.4427 6.99164 87.4317 5.99608L88.0617 8.52687C84.1083 9.5131 79.9097 10.6778 75.5667 11.9692ZM50.9065 20.1632L50.0259 17.7172C54.5618 16.096 58.5925 14.7025 62.3659 13.4399L63.1871 15.9015C59.4331 17.1653 55.4142 18.5558 50.9065 20.1632ZM191.315 102.715C192.042 100.113 192.707 97.4649 193.296 94.8426C193.64 93.2935 193.946 91.7226 194.212 90.1684L196.773 90.6005C196.507 92.2052 196.187 93.818 195.829 95.409C195.237 98.0699 194.566 100.765 193.823 103.408L191.315 102.715ZM26.4311 29.0888L25.5505 26.6427C28.7654 25.4759 32.041 24.2742 35.3685 23.0525L37.7755 22.1675L38.6754 24.6147L36.2609 25.4954C32.9409 26.7215 29.6535 27.9264 26.4311 29.0888ZM182.371 126.921C184.183 122.982 185.855 118.972 187.331 114.988L189.768 115.89C188.272 119.943 186.576 124.01 184.729 128.009L182.371 126.921ZM1.64705 37.3914L0.928638 34.8912C4.63202 33.8171 8.67469 32.5411 13.2929 30.9681L14.1215 33.4341C9.46774 35.0164 5.38605 36.3078 1.64705 37.3914ZM172.115 150.967L169.926 149.571C171.358 147.312 172.752 145.032 174.063 142.79C174.9 141.36 175.733 139.901 176.532 138.449L178.812 139.706C178.002 141.177 177.157 142.655 176.31 144.104C174.981 146.375 173.57 148.685 172.115 150.967ZM156.862 172.232L154.825 170.613C157.582 167.152 160.211 163.673 162.655 160.283L164.762 161.801C162.297 165.226 159.641 168.736 156.862 172.232ZM437.243 360.998C433.949 358.467 430.334 356.145 426.489 354.093L427.713 351.794C431.687 353.917 435.427 356.319 438.832 358.935L437.243 360.998ZM402.445 345.291L403.025 342.752C407.395 343.752 411.649 345 415.663 346.453L414.773 348.902C410.86 347.484 406.708 346.266 402.445 345.291ZM139.822 192.053L137.908 190.29C140.937 187.002 143.848 183.744 146.55 180.601L148.52 182.301C145.796 185.463 142.872 188.745 139.822 192.053ZM454.08 379.94C451.964 376.307 449.446 372.847 446.598 369.658L448.538 367.921C451.501 371.24 454.126 374.844 456.333 378.63L454.08 379.94ZM376.908 342.167L376.985 339.561C377.498 339.577 378.011 339.595 378.522 339.614C382.445 339.762 386.336 340.067 390.074 340.514L389.767 343.102C386.095 342.662 382.279 342.364 378.426 342.217C377.915 342.197 377.412 342.181 376.908 342.167ZM462.212 403.937C461.638 399.661 460.673 395.486 459.334 391.523L461.808 390.695C463.19 394.809 464.198 399.149 464.797 403.59L462.212 403.937ZM351.055 342.915L350.835 340.32C355.207 339.941 359.606 339.689 363.892 339.559L363.967 342.162C359.732 342.291 355.384 342.542 351.055 342.915ZM121.685 210.827L119.85 208.981C123.143 205.706 126.13 202.679 128.98 199.73L130.854 201.543C127.987 204.502 124.986 207.538 121.685 210.827ZM325.406 346.427L324.934 343.866C329.285 343.06 333.625 342.357 337.834 341.776L338.192 344.359C334.019 344.931 329.721 345.629 325.406 346.427ZM461.416 429.436C462.2 425.124 462.675 420.841 462.816 416.7L465.417 416.789C465.273 421.056 464.784 425.465 463.977 429.902L461.416 429.436ZM102.994 229.002L101.197 227.126C104.32 224.124 107.447 221.114 110.563 218.089L112.375 219.957C109.257 222.986 106.127 226 102.994 229.002ZM300.129 352.153L299.469 349.638C303.776 348.495 308.04 347.442 312.142 346.511L312.717 349.049C308.648 349.976 304.41 351.019 300.129 352.153ZM453.868 454.006C454.14 453.352 454.412 452.698 454.683 452.046C456.066 448.651 457.295 445.243 458.33 441.911L460.813 442.682C459.756 446.086 458.505 449.566 457.092 453.029C456.819 453.685 456.551 454.349 456.276 455.007L453.868 454.006ZM84.2563 247.069L82.4342 245.202C85.5366 242.183 88.6596 239.163 91.8016 236.145L93.6002 238.018C90.4684 241.036 87.3485 244.05 84.2563 247.069ZM275.248 359.521L274.447 357.042C278.698 355.667 282.887 354.365 286.901 353.171L287.641 355.668C283.65 356.857 279.476 358.151 275.248 359.521ZM443.033 477.579C444.993 473.679 446.883 469.743 448.658 465.884L451.026 466.974C449.236 470.859 447.33 474.821 445.356 478.745L443.033 477.579ZM250.679 367.971L249.8 365.523C254.172 363.941 258.197 362.524 262.087 361.182L262.93 363.641C259.051 364.98 255.046 366.398 250.679 367.971ZM65.9372 265.502L64.0536 263.705C66.9066 260.718 69.8884 257.665 73.1626 254.369L75.0114 256.208C71.7455 259.489 68.773 262.526 65.9372 265.502ZM226.284 377.001L225.368 374.564C229.43 373.032 233.496 371.508 237.564 370L238.467 372.442C234.401 373.947 230.344 375.472 226.284 377.001ZM430.659 500.401C432.85 496.62 434.988 492.811 437.019 489.081L439.3 490.319C437.264 494.075 435.114 497.905 432.909 501.708L430.659 500.401ZM48.6506 284.85L46.6382 283.188C48.0787 281.447 49.61 279.636 51.1999 277.812C52.508 276.297 53.8403 274.792 55.1814 273.29L57.1189 275.028C55.7848 276.519 54.4679 278.014 53.1672 279.517C51.5949 281.328 50.0736 283.122 48.6506 284.85ZM201.891 386.146L200.991 383.699C205.056 382.195 209.121 380.675 213.18 379.148L214.095 381.587C210.034 383.117 205.961 384.635 201.891 386.146ZM419.244 523.954L417.066 522.539C419.445 518.851 421.777 515.157 423.997 511.55L426.213 512.915C423.983 516.538 421.643 520.248 419.244 523.954ZM33.4569 305.757L31.2414 304.391C33.4307 300.854 35.897 297.187 38.5893 293.512L40.6846 295.05C38.0423 298.674 35.6037 302.276 33.4569 305.757ZM177.347 394.931L176.506 392.468C180.394 391.132 184.41 389.729 188.775 388.159L189.651 390.613C185.278 392.179 181.246 393.591 177.347 394.931ZM404.661 545.585L402.528 544.096C405.082 540.451 407.559 536.851 409.9 533.383L412.055 534.835C409.706 538.318 407.22 541.933 404.661 545.585ZM152.489 402.879L151.76 400.381C155.729 399.213 159.909 397.926 164.171 396.567L164.964 399.042C160.681 400.419 156.482 401.705 152.489 402.879ZM19.8669 328.08C21.2327 324.061 22.919 319.959 24.89 315.902L27.2294 317.039C25.3111 321.006 23.6594 324.998 22.3313 328.918L19.8669 328.08ZM127.117 409.249L126.633 406.692C130.834 405.901 134.986 404.971 138.97 403.932L139.251 403.865L139.909 406.382L139.624 406.457C135.58 407.511 131.373 408.449 127.117 409.249ZM389.414 566.738L387.324 565.193C389.984 561.59 392.573 558.056 394.997 554.686L397.108 556.213C394.673 559.586 392.087 563.131 389.414 566.738ZM14.9936 353.952C15.1437 349.796 15.6525 345.387 16.5169 340.834L19.0742 341.324C18.2381 345.743 17.7381 350.016 17.5926 354.044L14.9936 353.952ZM101.103 412.336L100.975 409.737C105.215 409.532 109.552 409.162 113.851 408.649L114.159 411.233C109.793 411.757 105.405 412.127 101.103 412.336ZM74.8906 411.586L75.1975 409C79.3066 409.483 83.634 409.781 88.0548 409.903L87.9921 412.501C83.4895 412.382 79.0772 412.074 74.8906 411.586ZM19.8525 379.886C17.9831 375.986 16.6364 371.709 15.8465 367.183L18.4038 366.728C19.166 371.026 20.4345 375.077 22.1975 378.763L19.8525 379.886ZM373.753 587.567L371.68 585.993C374.311 582.543 376.934 579.089 379.547 575.619L381.624 577.186C379.007 580.664 376.384 584.118 373.753 587.567ZM49.3198 405.479L50.2727 403.06C54.0475 404.544 58.1593 405.812 62.5137 406.821L61.9222 409.361C57.4454 408.322 53.2038 407.017 49.3198 405.479ZM37.4982 399.49C33.6232 396.992 30.1964 394.123 27.2991 390.95L29.2235 389.189C31.9686 392.192 35.2256 394.922 38.9178 397.303L37.4982 399.49ZM357.905 608.237L355.84 606.647L363.777 596.325L365.842 597.915L357.905 608.237Z" fill="#0F1C14"/>
</svg>
