<svg width="112" height="16" viewBox="0 0 112 16" fill="none" xmlns="http://www.w3.org/2000/svg">
<path d="M16.1774 8.11633C16.1774 3.8648 19.6744 0.423079 24.0547 0.423079C28.4719 0.423079 31.9689 3.8648 31.9689 8.11633C31.9689 12.3311 28.4719 15.8464 24.0547 15.8464C19.6744 15.828 16.1774 12.3311 16.1774 8.11633ZM28.1774 8.11633C28.1774 5.98136 26.3369 4.12247 24.0547 4.12247C21.8093 4.12247 19.9504 5.99977 19.9504 8.11633C19.9504 10.2697 21.7909 12.147 24.0547 12.147C26.3369 12.147 28.1774 10.2697 28.1774 8.11633ZM95.6314 8.24517C95.6314 3.58872 99.4228 0.423079 102.865 0.423079C105.202 0.423079 106.546 1.14087 107.466 2.52124L107.834 0.699153H111.349V15.5519H107.834L107.374 14.0243C106.343 15.147 105.055 15.8464 102.865 15.8464C99.4781 15.828 95.6314 12.8648 95.6314 8.24517ZM107.65 8.20836C107.65 5.96296 105.791 4.12247 103.546 4.12247C101.282 4.12247 99.4412 5.98136 99.4412 8.22676V8.24517C99.4412 10.3065 101.282 12.147 103.546 12.147C105.791 12.147 107.65 10.3065 107.65 8.20836ZM91.3063 2.42921V0.717559H87.4596V15.5703H91.3063V7.56419C91.3063 5.15314 92.5026 3.90161 94.5639 3.90161C94.6928 3.90161 94.8216 3.92001 94.9504 3.92001L95.6682 0.331055C93.6621 0.331055 92.2081 1.03044 91.3063 2.42921ZM52.6744 2.42921V0.717559H48.8277L48.8646 15.5703H52.7112L52.6928 7.56419C52.6928 5.15314 53.8707 3.90161 55.932 3.90161C56.0609 3.90161 56.1897 3.90161 56.3185 3.92001L57.0363 0.331055C55.0118 0.331055 53.5578 1.03044 52.6744 2.42921ZM33.294 9.80958V0.717559H37.1406V9.34946C37.1406 11.2636 38.2081 12.3863 40.0486 12.3863C42.11 12.3863 43.3063 11.1347 43.3063 8.72369V0.717559H47.1529V15.5703H43.3063V13.8587C42.4044 15.2574 40.932 15.9568 38.8891 15.9568C35.4474 15.9384 33.294 13.4353 33.294 9.80958ZM70.748 8.13473C70.748 3.97523 73.7296 0.423079 78.4596 0.423079C82.84 0.423079 85.932 3.93842 85.9136 8.07952C85.9136 8.48443 85.8768 8.88934 85.8216 9.29425L74.5026 9.27584C74.9443 11.0611 76.3983 12.3495 78.6253 12.3495C79.9688 12.3495 81.4044 11.8525 82.2879 10.7298L84.9198 12.828C83.5762 14.7421 81.1836 15.8464 78.6621 15.8464C74.1713 15.828 70.7296 12.4783 70.748 8.13473ZM82.0302 6.58872C81.8093 5.07952 80.2449 3.92001 78.4044 3.92001C76.6192 3.92001 75.1836 4.96909 74.613 6.57032L82.0302 6.58872ZM57.0547 12.3127L60.478 10.5274C61.0486 11.7605 62.1713 12.4783 63.7725 12.4783C65.2449 12.4783 65.8155 11.9998 65.8155 11.3556C65.8155 8.96296 57.7173 10.4169 57.7173 4.95069C57.7173 1.93228 60.3492 0.331055 63.6253 0.331055C66.1099 0.331055 68.3001 1.43535 69.4965 3.4783L66.1099 5.26357C65.613 4.2513 64.6744 3.69916 63.4781 3.69916C62.3185 3.69916 61.748 4.10406 61.748 4.80345C61.748 7.12247 69.8461 5.65007 69.8461 11.2084C69.8461 14.0979 67.4903 15.8464 63.6989 15.8464C60.4412 15.828 58.1774 14.7605 57.0547 12.3127ZM0.901367 8.11633C0.901367 3.82799 4.3983 0.386273 8.77867 0.386273C11.4474 0.367868 13.9504 1.69302 15.4412 3.92001L12.1652 5.81572C11.3922 4.71143 10.1406 4.06725 8.79707 4.06725C6.55167 4.06725 4.69278 5.94455 4.69278 8.09793C4.69278 10.2513 6.53327 12.1286 8.79707 12.1286C10.2142 12.1286 11.521 11.4108 12.2756 10.2145L15.5333 12.147C14.0609 14.4292 11.521 15.828 8.81548 15.8096C4.3983 15.828 0.901367 12.3311 0.901367 8.11633Z" fill="white"/>
</svg>
