<svg width="120" height="40" viewBox="0 0 120 40" fill="none" xmlns="http://www.w3.org/2000/svg">
<path fill-rule="evenodd" clip-rule="evenodd" d="M15.5452 14.0321V18.2199L25.5541 18.2154C25.247 20.5252 24.4682 22.2163 23.2844 23.4001C21.8247 24.8598 19.5461 26.4664 15.5452 26.4664C9.37696 26.4664 4.55274 21.4953 4.55274 15.3271C4.55274 9.15889 9.37696 4.18781 15.5452 4.18781C18.8741 4.18781 21.304 5.49622 23.0975 7.17847L26.0525 4.22341C23.5514 1.83356 20.2225 0 15.5496 0C7.10281 0 0 6.88029 0 15.3271C0 23.7739 7.10281 30.6542 15.5496 30.6542C20.1068 30.6542 23.547 29.1589 26.2395 26.3552C29.0076 23.587 29.8665 19.7018 29.8665 16.5599C29.8665 15.6253 29.7953 14.7619 29.6573 14.0321H15.5452ZM99.9732 30.0535V1.12597H95.7454V30.0535H99.9732ZM41.4508 30.6587C46.907 30.6587 51.3529 26.4709 51.3529 20.7878C51.3529 15.0646 46.907 10.9168 41.4508 10.9168C35.9947 10.9168 31.5487 15.0646 31.5487 20.7878C31.5487 26.4709 35.9947 30.6587 41.4508 30.6587ZM41.4508 14.8064C44.4415 14.8064 47.0183 17.2364 47.0183 20.7878C47.0183 24.2991 44.4415 26.7691 41.4508 26.7691C38.4602 26.7691 35.8834 24.3036 35.8834 20.7878C35.8834 17.2364 38.4602 14.8064 41.4508 14.8064ZM62.8126 30.6587C68.2688 30.6587 72.7147 26.4709 72.7147 20.7878C72.7147 15.0646 68.2688 10.9168 62.8126 10.9168C57.3564 10.9168 52.9105 15.069 52.9105 20.7878C52.9105 26.4709 57.3564 30.6587 62.8126 30.6587ZM62.8126 14.8064C65.8033 14.8064 68.38 17.2364 68.38 20.7878C68.38 24.2991 65.8033 26.7691 62.8126 26.7691C59.8219 26.7691 57.2452 24.3036 57.2452 20.7878C57.2452 17.2364 59.8219 14.8064 62.8126 14.8064ZM93.1864 11.5176V29.2346C93.1864 36.5243 88.8874 39.5016 83.805 39.5016C79.0209 39.5016 76.1415 36.3018 75.0556 33.685L78.8295 32.114C79.5015 33.7206 81.1481 35.6164 83.8006 35.6164C87.0538 35.6164 89.0698 33.6093 89.0698 29.8309V28.4113H88.9185C87.9483 29.6084 86.0792 30.6543 83.7205 30.6543C78.785 30.6543 74.2634 26.3552 74.2634 20.8234C74.2634 15.2515 78.785 10.9168 83.7205 10.9168C86.0747 10.9168 87.9439 11.9627 88.9185 13.1242H89.0698V11.5176H93.1864ZM89.3769 20.8234C89.3769 17.3476 87.0583 14.8064 84.1077 14.8064C81.117 14.8064 78.6114 17.3476 78.6114 20.8234C78.6114 24.2635 81.117 26.7691 84.1077 26.7691C87.0583 26.7691 89.3769 24.2635 89.3769 20.8234ZM116.449 24.0365L119.813 26.2795C118.727 27.8861 116.11 30.6542 111.589 30.6542C105.981 30.6542 101.793 26.3195 101.793 20.7833C101.793 14.9132 106.017 10.9123 111.104 10.9123C116.226 10.9123 118.732 14.9889 119.55 17.1918L120 18.3133L106.805 23.7784C107.815 25.7588 109.386 26.769 111.589 26.769C113.796 26.769 115.327 25.6831 116.449 24.0365ZM106.092 20.4851L114.913 16.8224C114.428 15.5897 112.968 14.7307 111.25 14.7307C109.048 14.7307 105.981 16.6756 106.092 20.4851Z" fill="white"/>
</svg>
