<svg width="100" height="66" viewBox="0 0 100 66" fill="none" xmlns="http://www.w3.org/2000/svg">
<path fill-rule="evenodd" clip-rule="evenodd" d="M29.4628 44.1196V27.9714H33.7104C35.2205 27.9714 35.8467 28.7157 35.8467 29.925V44.1196H40.9779V29.8985C40.9779 27.011 39.4423 23.8321 34.9346 23.8321L24.3219 23.822V44.1196H29.4628ZM60.7325 29.8583C61.3003 28.6321 62.66 27.7287 64.4171 27.7287C67.049 27.7287 68.0473 29.8583 68.149 32.0599H60.2406C60.2802 31.1586 60.3956 30.5945 60.7325 29.8583ZM64.7933 40.123C61.8748 40.123 60.2406 38.1878 60.2406 35.5586H73.2802V33.7069C73.2802 27.9063 70.1164 23.4777 64.6399 23.4777C59.2369 23.4777 55.1255 27.2606 55.1255 33.9418C55.1255 41.7619 59.8345 44.4451 64.7553 44.4451C68.5137 44.4451 70.6469 43.226 72.6798 41.2193L69.505 38.1878C68.1922 39.4938 67.0637 40.123 64.7933 40.123ZM44.8215 38.2999C44.8215 41.179 46.5983 44.0941 50.7862 44.0941H53.8232V39.8119H51.7352C50.5111 39.8119 49.954 39.1572 49.954 37.978V27.9714H53.8232V23.8217H49.954V18.2915H44.8215V38.2999ZM14.5726 21.017H19.7484V16.1002H14.5726V21.017ZM14.5669 38.8968C14.5669 41.6096 15.8857 43.9606 19.7615 44.3331V23.822H14.5729L14.5669 38.8968ZM76.2687 38.4697C76.2687 41.179 77.5811 43.5264 81.4489 43.8992V15.4009H76.2687V38.4697ZM21.7987 11.8311C50.4352 -5.60205 94.8633 -4.15307 99.5579 18.7348V18.7345C102.072 30.9958 93.4127 41.0126 84.969 44.1015V38.6364C91.9841 34.4593 95.912 27.1918 94.6754 20.2214C90.9788 -0.859113 50.406 -0.946025 21.7987 13.756V11.8311ZM4.2622 42.2931C7.14407 57.7371 27.739 60.6058 47.503 58.7787C59.6496 57.6542 74.2342 53.3142 83.0476 48.0659V55.6394C73.3345 60.9706 59.3634 64.4031 48.6889 65.4448C21.7095 68.0669 4.03367 60.1713 0.730661 46.2391C-1.85725 35.374 2.6377 26.1791 10.9209 18.916V21.5965C6.31991 26.6096 2.85146 34.6801 4.2622 42.2931ZM86.9549 16.6016C87.2901 16.6016 87.4368 16.6815 87.4368 16.9325V16.9741C87.4368 17.209 87.2901 17.3211 86.9549 17.3211C86.9347 17.3211 86.869 17.319 86.8014 17.3169C86.7294 17.3146 86.6553 17.3123 86.6311 17.3123V16.6016H86.9549ZM87.5579 18.6952H87.9415C88.0029 18.6952 88.0244 18.6549 88.0244 18.619C88.0244 18.6056 88.0195 18.5909 88.0151 18.5773C88.0122 18.5687 88.0096 18.5605 88.0083 18.5533L87.4656 17.6358C87.7515 17.5402 87.9361 17.3445 87.9361 16.9741V16.9325C87.9361 16.3338 87.5505 16.1459 86.9133 16.1459C86.7338 16.1459 86.4009 16.1566 86.2784 16.1727C86.1697 16.1895 86.1197 16.2432 86.1197 16.3721V18.5972C86.1197 18.6442 86.1626 18.6952 86.2062 18.6952H86.5532C86.615 18.6952 86.6475 18.6442 86.6475 18.5972V17.7177H86.8824C86.9002 17.7177 86.9455 17.7392 86.9546 17.7573L87.4781 18.6442C87.4854 18.6592 87.4968 18.6719 87.5108 18.6809C87.5249 18.6899 87.5412 18.6948 87.5579 18.6952ZM85.3234 17.4623C85.3234 16.5234 86.0868 15.7442 87.0307 15.7442V15.7439C87.97 15.7439 88.7408 16.5234 88.7408 17.462C88.7408 18.4019 87.97 19.169 87.0307 19.169C86.5781 19.1689 86.144 18.989 85.8239 18.669C85.5037 18.349 85.3237 17.915 85.3234 17.4623ZM86.2414 19.367C86.4917 19.4703 86.7599 19.5233 87.0307 19.5227C88.1653 19.5227 89.0978 18.5972 89.0978 17.462C89.0978 16.3288 88.1653 15.4006 87.0307 15.4006C86.7599 15.4003 86.4916 15.4534 86.2413 15.5569C85.991 15.6604 85.7636 15.8122 85.5721 16.0037C85.3805 16.1953 85.2286 16.4227 85.1251 16.6729C85.0216 16.9232 84.9684 17.1915 84.9687 17.4623C84.9684 17.7331 85.0215 18.0013 85.125 18.2516C85.2286 18.5018 85.3805 18.7291 85.5721 18.9205C85.7636 19.1119 85.9911 19.2637 86.2414 19.367Z" fill="white"/>
</svg>
