<svg width="120" height="26" viewBox="0 0 120 26" fill="none" xmlns="http://www.w3.org/2000/svg">
<path fill-rule="evenodd" clip-rule="evenodd" d="M0 0H12.1808V12.1808H0V0ZM42.3646 14.764L41.6493 16.7909H41.5897C41.4705 16.3338 41.2519 15.6383 40.8942 14.8038L37.0591 5.16642H33.3035V20.5266H35.7874V11.0482C35.7874 10.4521 35.7874 9.77645 35.7675 8.94188C35.7534 8.64553 35.7293 8.39929 35.7094 8.19605V8.196C35.7012 8.11307 35.6938 8.0373 35.688 7.96821H35.7477C35.8669 8.56433 36.006 9.00149 36.1053 9.27968L40.7154 20.4868H42.464L47.0343 9.18033C47.1103 8.98279 47.1862 8.63419 47.2622 8.28559C47.2856 8.17833 47.309 8.07107 47.3323 7.96821H47.392C47.3323 9.10084 47.2926 10.1143 47.2727 10.7303V20.467H49.9156V5.12668H46.2991L42.3646 14.764ZM52.4193 9.45852H55.0025V20.467H52.4193V9.45852ZM53.7308 4.80874C53.2936 4.80874 52.9359 4.96771 52.6379 5.2459C52.3398 5.52409 52.1808 5.88177 52.1808 6.31893C52.1808 6.73621 52.3398 7.09389 52.6379 7.37208C52.9359 7.65027 53.2936 7.78937 53.7308 7.78937C54.1679 7.78937 54.5455 7.6304 54.8237 7.37208C55.1217 7.09389 55.2807 6.73621 55.2807 6.31893C55.2807 5.90164 55.1217 5.54396 54.8237 5.2459C54.5653 4.96771 54.1878 4.80874 53.7308 4.80874ZM64.1629 9.35916C63.686 9.25981 63.1893 9.2002 62.7124 9.2002C61.54 9.2002 60.467 9.45852 59.5728 9.97516C58.6786 10.4918 57.9632 11.2072 57.5062 12.1013C57.0293 13.0154 56.7909 14.0686 56.7909 15.2807C56.7909 16.3338 57.0293 17.2678 57.4863 18.1222C57.9434 18.9568 58.5792 19.6324 59.4337 20.0894C60.2484 20.5464 61.2022 20.7849 62.2752 20.7849C63.5072 20.7849 64.5604 20.5266 65.3949 20.0497L65.4148 20.0298V17.6453L65.3155 17.7248C64.9379 18.003 64.5007 18.2414 64.0636 18.3805C63.6066 18.5395 63.1893 18.619 62.8316 18.619C61.7983 18.619 60.9836 18.3209 60.4074 17.6652C59.8112 17.0293 59.5132 16.155 59.5132 15.0621C59.5132 13.9295 59.8112 13.0353 60.4272 12.3795C61.0432 11.7238 61.8579 11.386 62.8515 11.386C63.686 11.386 64.5405 11.6642 65.3155 12.2206L65.4148 12.3V9.77645L65.3949 9.75658L65.3654 9.74443C65.0351 9.60832 64.6646 9.45564 64.1629 9.35916ZM72.6875 9.27968C72.0517 9.27968 71.4555 9.47839 70.9389 9.89568C70.5017 10.2534 70.2037 10.77 69.9454 11.386H69.9255V9.45852H67.3423V20.467H69.9255V14.8435C69.9255 13.8897 70.1242 13.0949 70.5614 12.5186C70.9985 11.9225 71.5549 11.6244 72.2305 11.6244C72.3895 11.6244 72.5484 11.6509 72.7251 11.6804C72.8134 11.6951 72.9061 11.7105 73.0055 11.7238C73.2837 11.8033 73.4824 11.8828 73.6215 11.9821L73.7208 12.0616V9.47839L73.6612 9.45852C73.4824 9.33929 73.1247 9.27968 72.6875 9.27968ZM79.7218 9.22007C77.9136 9.22007 76.463 9.75658 75.4496 10.8097C74.4163 11.8629 73.9195 13.3135 73.9195 15.1416C73.9195 16.8505 74.4362 18.2414 75.4297 19.2548C76.4232 20.2484 77.7745 20.765 79.4635 20.765C81.232 20.765 82.6428 20.2285 83.6562 19.1555C84.6895 18.0825 85.1863 16.6518 85.1863 14.8833C85.1863 13.1346 84.7094 11.7437 83.7357 10.7303C82.8018 9.71684 81.4307 9.22007 79.7218 9.22007ZM81.7884 17.685C81.3115 18.301 80.5564 18.5991 79.6225 18.5991C78.6885 18.5991 77.9334 18.301 77.3969 17.6453C76.8604 17.0293 76.6021 16.1351 76.6021 15.0025C76.6021 13.8301 76.8803 12.9359 77.3969 12.3C77.9334 11.6642 78.6687 11.3462 79.6026 11.3462C80.5166 11.3462 81.232 11.6443 81.7486 12.2603C82.2653 12.8763 82.5435 13.7705 82.5435 14.9429C82.5037 16.1351 82.2851 17.069 81.7884 17.685ZM90.9488 14.0288C90.1341 13.691 89.6175 13.4327 89.379 13.2141C89.1803 13.0154 89.081 12.7372 89.081 12.3795C89.081 12.0815 89.2002 11.7834 89.4983 11.5847C89.7963 11.386 90.1341 11.2866 90.6309 11.2866C91.0681 11.2866 91.5251 11.3661 91.9622 11.4853C92.3994 11.6046 92.7968 11.7834 93.1147 12.0219L93.2141 12.1013V9.6771L93.1545 9.65723C92.8564 9.538 92.459 9.41878 91.9821 9.31942C91.5052 9.23994 91.0681 9.2002 90.7104 9.2002C89.4784 9.2002 88.465 9.49826 87.6701 10.154C86.8753 10.77 86.4978 11.6046 86.4978 12.5782C86.4978 13.0949 86.5772 13.5519 86.7561 13.9295C86.9349 14.307 87.1932 14.6647 87.5509 14.9627C87.9086 15.2409 88.4252 15.5589 89.1406 15.8569C89.7367 16.1152 90.1937 16.314 90.4719 16.4729C90.7501 16.6319 90.929 16.8107 91.068 16.9498C91.1674 17.1088 91.227 17.3075 91.227 17.5658C91.227 18.301 90.6706 18.6587 89.538 18.6587C89.1008 18.6587 88.6438 18.5792 88.1073 18.4004C87.5708 18.2216 87.074 17.9632 86.6567 17.6652L86.5574 17.5857V20.1093L86.617 20.1292C86.9945 20.308 87.4516 20.4272 88.0079 20.5663C88.5643 20.6657 89.0611 20.7452 89.4983 20.7452C90.8296 20.7452 91.9225 20.4471 92.6975 19.7914C93.4923 19.1555 93.9096 18.3408 93.9096 17.2876C93.9096 16.5524 93.7109 15.8967 93.2737 15.3999C92.6975 14.923 91.9821 14.4262 90.9488 14.0288ZM100.725 9.22007C98.917 9.22007 97.4665 9.75658 96.453 10.8097C95.4396 11.8629 94.923 13.3135 94.923 15.1416C94.923 16.8505 95.4396 18.2414 96.4332 19.2548C97.4267 20.2484 98.7779 20.765 100.467 20.765C102.235 20.765 103.646 20.2285 104.66 19.1555C105.693 18.0825 106.19 16.6518 106.19 14.8833C106.19 13.1346 105.713 11.7437 104.739 10.7303C103.805 9.71684 102.434 9.22007 100.725 9.22007ZM102.772 17.685C102.295 18.301 101.54 18.5991 100.606 18.5991C99.6523 18.5991 98.917 18.301 98.3805 17.6453C97.844 17.0293 97.5857 16.1351 97.5857 15.0025C97.5857 13.8301 97.8639 12.9359 98.3805 12.3C98.917 11.6642 99.6523 11.3462 100.586 11.3462C101.48 11.3462 102.216 11.6443 102.732 12.2603C103.249 12.8763 103.527 13.7705 103.527 14.9429C103.527 16.1351 103.269 17.069 102.772 17.685ZM120 11.5847V9.45852H117.397V6.1997L117.317 6.21957L114.853 6.95479L114.794 6.97466V9.45852H110.899V8.06756C110.899 7.43169 111.058 6.93492 111.336 6.61699C111.614 6.29906 112.032 6.14009 112.548 6.14009C112.906 6.14009 113.284 6.21957 113.701 6.39841L113.8 6.45802V4.21262L113.741 4.19275C113.383 4.07352 112.906 3.99404 112.29 3.99404C111.515 3.99404 110.84 4.17288 110.224 4.47094C109.608 4.80874 109.151 5.26577 108.813 5.88177C108.475 6.47789 108.296 7.1535 108.296 7.92846V9.45852H106.488V11.5648H108.296V20.467H110.899V11.5847H114.794V17.2479C114.794 19.5728 115.887 20.7452 118.073 20.7452C118.43 20.7452 118.808 20.6855 119.165 20.6259C119.543 20.5464 119.821 20.4471 119.98 20.3676L120 20.3477V18.2216L119.901 18.301C119.742 18.4004 119.603 18.4799 119.364 18.5395C119.165 18.5991 118.987 18.619 118.847 18.619C118.331 18.619 117.973 18.4997 117.715 18.2017C117.476 17.9235 117.357 17.4665 117.357 16.7909V11.5847H120ZM25.6334 0H13.4526V12.1808H25.6334V0ZM0 13.4526H12.1808V25.6334H0V13.4526ZM25.6334 13.4526H13.4526V25.6334H25.6334V13.4526Z" fill="white"/>
</svg>
