<svg width="120" height="46" viewBox="0 0 120 46" fill="none" xmlns="http://www.w3.org/2000/svg">
<path fill-rule="evenodd" clip-rule="evenodd" d="M9.31968 5.38164L18.642 10.7633H18.6433V5.38164L9.321 0L0 5.38164V10.7633L9.31968 5.38164ZM4.88275 15.2825H0V27.549C0 30.334 0.887651 32.4318 2.62315 33.9245C4.35732 35.4185 6.57711 36.1442 9.27987 36.1442C11.9853 36.1442 14.2037 35.4171 15.9804 33.9245C17.7557 32.4304 18.6433 30.2518 18.6433 27.4283V15.2825H13.7606V27.1045C13.7606 30.1708 11.489 31.7047 9.321 31.7047C7.17153 31.7047 4.88275 30.2107 4.88275 27.1457V15.2825ZM55.7748 31.9873C57.6947 31.9873 59.3784 31.3424 60.8565 30.0262L64.4828 32.12C62.2696 34.6409 59.3201 36.1031 55.6129 36.1031C52.4245 36.1031 49.8014 35.1345 47.8244 33.2385C45.8474 31.3411 44.839 28.7989 44.839 25.6105V25.4513C44.839 22.2218 45.8474 19.6398 47.8244 17.6628C49.8425 15.6858 52.386 14.7172 55.4921 14.7172C58.439 14.7172 60.8592 15.6858 62.7141 17.6628C64.6115 19.6398 65.5403 22.0612 65.5403 24.967C65.5403 25.9038 65.4341 26.9015 65.4341 26.9015H49.6581C49.9234 29.9917 52.2719 31.9873 55.7748 31.9873ZM55.4908 18.8331C53.9981 18.8331 52.6647 19.2762 51.5767 20.1241L51.578 20.1254C50.5364 20.9348 49.9393 21.9299 49.7828 23.1108H60.6111C60.566 21.9684 60.0458 20.9746 59.0826 20.1652C58.0728 19.2762 56.9026 18.8331 55.4908 18.8331ZM102.776 45.1123C105.954 45.1123 108.027 43.5214 110.008 38.8444H110.009L120 15.2825H115.038L108.944 30.1324L103.011 15.2825H98.0477L106.401 35.9014L105.433 38.1385C104.464 40.3729 103.448 40.7842 102.355 40.7842H100.574V45.1123H102.776ZM37.6515 17.1241V7.4966H42.4945V35.6188H37.6515V33.7467C36.5476 34.7643 34.4592 36.0633 31.1554 36.0633C28.2907 36.0633 25.8693 35.0536 23.8923 33.0355C21.9551 30.9776 20.9865 28.4765 20.9865 25.4486C20.9865 22.4221 21.9551 19.9211 23.8923 17.9029C25.8693 15.8464 28.2894 14.838 31.1554 14.838C33.5622 14.838 36.0514 15.6911 37.6515 17.1241ZM31.8002 31.6662C33.5357 31.6662 35.0284 31.0598 36.1987 29.8896C37.4087 28.7193 38.0164 27.2266 38.0164 25.4513C38.0164 23.6747 37.4087 22.182 36.1987 21.0117C35.0284 19.8415 33.5357 19.2364 31.8002 19.2364C30.0647 19.2364 28.653 19.8415 27.4827 21.0117C26.3536 22.182 25.7883 23.6747 25.7883 25.4513C25.7883 27.2266 26.3549 28.7193 27.4827 29.8896C28.653 31.0598 30.0647 31.6662 31.8002 31.6662ZM83.6197 17.8751C84.9293 16.405 86.8412 14.8791 90.5192 14.8791V14.8804C94.7319 14.8804 97.5819 17.7278 97.5819 23.0298V35.6188H92.739V23.7145C92.739 20.9321 91.4082 19.1966 89.1075 19.1966C86.7271 19.1966 85.0739 21.1338 85.0739 23.9175V35.6202H80.2721V23.7171C80.2721 20.9334 78.9413 19.1979 76.6392 19.1979C74.3809 19.1979 72.6852 21.1749 72.6852 23.9188V35.6215H67.8848V15.2851H72.6852V17.4001C73.5424 16.3519 75.2593 14.8791 78.173 14.8791C81.6201 14.8791 83.0956 16.876 83.6197 17.8751Z" fill="white"/>
</svg>
