<svg width="20" height="22" viewBox="0 0 20 22" fill="none" xmlns="http://www.w3.org/2000/svg">
<path d="M6 4.75C5.59 4.75 5.25 4.41 5.25 4V1C5.25 0.59 5.59 0.25 6 0.25C6.41 0.25 6.75 0.59 6.75 1V4C6.75 4.41 6.41 4.75 6 4.75Z" fill="#0F1C14"/>
<path d="M14 4.75C13.59 4.75 13.25 4.41 13.25 4V1C13.25 0.59 13.59 0.25 14 0.25C14.41 0.25 14.75 0.59 14.75 1V4C14.75 4.41 14.41 4.75 14 4.75Z" fill="#0F1C14"/>
<path d="M6.5 13.4998C6.37 13.4998 6.24 13.4698 6.12 13.4198C5.99 13.3698 5.89 13.2998 5.79 13.2098C5.61 13.0198 5.5 12.7698 5.5 12.4998C5.5 12.3698 5.53 12.2398 5.58 12.1198C5.63 11.9998 5.7 11.8898 5.79 11.7898C5.89 11.6998 5.99 11.6298 6.12 11.5798C6.48 11.4298 6.93 11.5098 7.21 11.7898C7.39 11.9798 7.5 12.2398 7.5 12.4998C7.5 12.5598 7.49 12.6298 7.48 12.6998C7.47 12.7598 7.45 12.8198 7.42 12.8798C7.4 12.9398 7.37 12.9998 7.33 13.0598C7.3 13.1098 7.25 13.1598 7.21 13.2098C7.02 13.3898 6.76 13.4998 6.5 13.4998Z" fill="#0F1C14"/>
<path d="M10 13.4999C9.87 13.4999 9.74 13.4699 9.62 13.4199C9.49 13.3699 9.39 13.2999 9.29 13.2099C9.11 13.0199 9 12.7699 9 12.4999C9 12.3699 9.03 12.2399 9.08 12.1199C9.13 11.9999 9.2 11.8899 9.29 11.7899C9.39 11.6999 9.49 11.6299 9.62 11.5799C9.98 11.4199 10.43 11.5099 10.71 11.7899C10.89 11.9799 11 12.2399 11 12.4999C11 12.5599 10.99 12.6299 10.98 12.6999C10.97 12.7599 10.95 12.8199 10.92 12.8799C10.9 12.9399 10.87 12.9999 10.83 13.0599C10.8 13.1099 10.75 13.1599 10.71 13.2099C10.52 13.3899 10.26 13.4999 10 13.4999Z" fill="#0F1C14"/>
<path d="M13.5 13.4999C13.37 13.4999 13.24 13.4699 13.12 13.4199C12.99 13.3699 12.89 13.2999 12.79 13.2099C12.75 13.1599 12.71 13.1099 12.67 13.0599C12.63 12.9999 12.6 12.9399 12.58 12.8799C12.55 12.8199 12.53 12.7599 12.52 12.6999C12.51 12.6299 12.5 12.5599 12.5 12.4999C12.5 12.2399 12.61 11.9799 12.79 11.7899C12.89 11.6999 12.99 11.6299 13.12 11.5799C13.49 11.4199 13.93 11.5099 14.21 11.7899C14.39 11.9799 14.5 12.2399 14.5 12.4999C14.5 12.5599 14.49 12.6299 14.48 12.6999C14.47 12.7599 14.45 12.8199 14.42 12.8799C14.4 12.9399 14.37 12.9999 14.33 13.0599C14.3 13.1099 14.25 13.1599 14.21 13.2099C14.02 13.3899 13.76 13.4999 13.5 13.4999Z" fill="#0F1C14"/>
<path d="M6.5 17.0002C6.37 17.0002 6.24 16.9702 6.12 16.9202C6 16.8702 5.89 16.8002 5.79 16.7102C5.61 16.5202 5.5 16.2602 5.5 16.0002C5.5 15.8702 5.53 15.7402 5.58 15.6202C5.63 15.4902 5.7 15.3802 5.79 15.2902C6.16 14.9202 6.84 14.9202 7.21 15.2902C7.39 15.4802 7.5 15.7402 7.5 16.0002C7.5 16.2602 7.39 16.5202 7.21 16.7102C7.02 16.8902 6.76 17.0002 6.5 17.0002Z" fill="#0F1C14"/>
<path d="M10 17.0002C9.74 17.0002 9.48 16.8902 9.29 16.7102C9.11 16.5202 9 16.2602 9 16.0002C9 15.8702 9.03 15.7402 9.08 15.6202C9.13 15.4902 9.2 15.3802 9.29 15.2902C9.66 14.9202 10.34 14.9202 10.71 15.2902C10.8 15.3802 10.87 15.4902 10.92 15.6202C10.97 15.7402 11 15.8702 11 16.0002C11 16.2602 10.89 16.5202 10.71 16.7102C10.52 16.8902 10.26 17.0002 10 17.0002Z" fill="#0F1C14"/>
<path d="M13.5 16.9999C13.24 16.9999 12.98 16.8899 12.79 16.7099C12.7 16.6199 12.63 16.5099 12.58 16.3799C12.53 16.2599 12.5 16.1299 12.5 15.9999C12.5 15.8699 12.53 15.7399 12.58 15.6199C12.63 15.4899 12.7 15.3799 12.79 15.2899C13.02 15.0599 13.37 14.9499 13.69 15.0199C13.76 15.0299 13.82 15.0499 13.88 15.0799C13.94 15.0999 14 15.1299 14.06 15.1699C14.11 15.1999 14.16 15.2499 14.21 15.2899C14.39 15.4799 14.5 15.7399 14.5 15.9999C14.5 16.2599 14.39 16.5199 14.21 16.7099C14.02 16.8899 13.76 16.9999 13.5 16.9999Z" fill="#0F1C14"/>
<path d="M18.5 8.83984H1.5C1.09 8.83984 0.75 8.49984 0.75 8.08984C0.75 7.67984 1.09 7.33984 1.5 7.33984H18.5C18.91 7.33984 19.25 7.67984 19.25 8.08984C19.25 8.49984 18.91 8.83984 18.5 8.83984Z" fill="#0F1C14"/>
<path d="M14 21.75H6C2.35 21.75 0.25 19.65 0.25 16V7.5C0.25 3.85 2.35 1.75 6 1.75H14C17.65 1.75 19.75 3.85 19.75 7.5V16C19.75 19.65 17.65 21.75 14 21.75ZM6 3.25C3.14 3.25 1.75 4.64 1.75 7.5V16C1.75 18.86 3.14 20.25 6 20.25H14C16.86 20.25 18.25 18.86 18.25 16V7.5C18.25 4.64 16.86 3.25 14 3.25H6Z" fill="#0F1C14"/>
</svg>
