<svg width="36" height="45" viewBox="0 0 36 45" fill="none" xmlns="http://www.w3.org/2000/svg">
<path d="M31.9703 44.9421C31.4677 44.9417 30.9717 44.8279 30.5193 44.609C30.0666 44.3901 29.6692 44.0717 29.3564 43.6777C28.3885 42.6306 20.9083 35.2691 16.3246 30.7809C16.0074 30.4745 15.7538 30.1084 15.5784 29.7033C15.4031 29.2984 15.3094 28.8626 15.3028 28.4212C15.2962 27.9798 15.3769 27.5415 15.5401 27.1314C15.7033 26.7213 15.9459 26.3477 16.2539 26.0319C16.5618 25.7163 16.9291 25.4647 17.3345 25.2917C17.7399 25.1188 18.1754 25.0281 18.616 25.0245C19.0566 25.0209 19.4935 25.1048 19.9017 25.2711C20.3098 25.4376 20.681 25.6832 20.994 25.994C21.0267 26.0261 24.3279 29.2589 27.6045 32.4883L28.6311 33.5005V17.7804C28.6311 11.6671 23.7077 6.69344 17.6558 6.69344C11.6039 6.69344 6.68058 11.6671 6.68058 17.7804V41.5951C6.68058 42.4827 6.32865 43.334 5.70223 43.9616C5.07581 44.5892 4.22618 44.9417 3.34028 44.9417C2.45438 44.9417 1.60477 44.5892 0.978347 43.9616C0.351922 43.334 0 42.4827 0 41.5951V17.7804C0 7.97621 7.92034 0 17.6558 0C27.3912 0 35.3116 7.97621 35.3116 17.7804V41.5951C35.3112 42.4827 34.9591 43.334 34.3325 43.9618C33.7059 44.5894 32.8563 44.9419 31.9703 44.9421ZM28.9335 42.9857L28.9349 42.9887L28.9335 42.9857Z" fill="#A8F4C9"/>
<path d="M17.6564 20.9973C19.7648 20.9973 21.4739 19.285 21.4739 17.1725C21.4739 15.0601 19.7648 13.3477 17.6564 13.3477C15.548 13.3477 13.8389 15.0601 13.8389 17.1725C13.8389 19.285 15.548 20.9973 17.6564 20.9973Z" fill="#FEED80"/>
</svg>
