<svg width="18" height="18" viewBox="0 0 18 18" fill="none" xmlns="http://www.w3.org/2000/svg">
<path d="M13.2462 17.0029C12.8487 17.0029 12.3387 16.8754 11.7012 16.5004L9.45865 15.1729C9.22615 15.0379 8.77615 15.0379 8.55114 15.1729L6.30112 16.5004C4.97361 17.2879 4.1936 16.9729 3.8411 16.7179C3.49609 16.4629 2.95609 15.8104 3.30859 14.3104L3.8411 12.0078C3.9011 11.7678 3.78109 11.3553 3.60109 11.1753L1.74107 9.31532C0.811064 8.38531 0.886064 7.5903 1.01357 7.2003C1.14107 6.8103 1.54607 6.12029 2.83608 5.90279L5.22861 5.50528C5.45361 5.46778 5.77612 5.22778 5.87362 5.02528L7.20113 2.37775C7.80114 1.17024 8.58865 0.990234 9.00115 0.990234C9.41365 0.990234 10.2012 1.17024 10.8012 2.37775L12.1212 5.01778C12.2262 5.22028 12.5487 5.46028 12.7737 5.49778L15.1662 5.89529C16.4637 6.11279 16.8687 6.8028 16.9887 7.1928C17.1087 7.5828 17.1837 8.37781 16.2612 9.30782L14.4012 11.1753C14.2212 11.3553 14.1087 11.7603 14.1612 12.0078L14.6937 14.3104C15.0387 15.8104 14.5062 16.4629 14.1612 16.7179C13.9737 16.8529 13.6737 17.0029 13.2462 17.0029Z" fill="#FFB127"/>
</svg>
